Coordinates
version=1
nRows=11
nColumns=40
inDegrees=yes

Units are S.I. units (second, meters, Newtons, ...)
Angles are in degrees.

endheader
time	pelvis_tilt	pelvis_list	pelvis_rotation	pelvis_tx	pelvis_ty	pelvis_tz	hip_flexion_r	hip_adduction_r	hip_rotation_r	knee_angle_r	knee_angle_r_beta	ankle_angle_r	subtalar_angle_r	mtp_angle_r	hip_flexion_l	hip_adduction_l	hip_rotation_l	knee_angle_l	knee_angle_l_beta	ankle_angle_l	subtalar_angle_l	mtp_angle_l	lumbar_extension	lumbar_bending	lumbar_rotation	arm_flex_r	arm_add_r	arm_rot_r	elbow_flex_r	pro_sup_r	wrist_flex_r	wrist_dev_r	arm_flex_l	arm_add_l	arm_rot_l	elbow_flex_l	pro_sup_l	wrist_flex_l	wrist_dev_l
     26.85742857	     -2.44618285	     -4.33853868	      1.26597441	      1.07215142	      0.90751350	      0.58068943	     18.29647125	      5.07213721	     -8.60039645	     33.52080683	     33.52080683	     19.07876526	    -10.81049570	     -0.03840707	     31.59440152	    -14.99282363	      4.73529171	     62.34631601	     62.34631601	     15.58552183	    -19.35560670	     18.83591346	    -12.49701826	      3.69090175	      1.32847642	     27.07059803	    -20.82145509	    -14.86265711	     51.14578651	     46.05426150	      0.00000000	      0.00000000	     -3.03315832	     -9.30443692	      3.94226028	     21.03271958	     46.62286599	      0.00000000	      0.00000000
     26.87985714	     -2.29546867	     -4.40323922	      2.50251739	      1.07110675	      0.90570124	      0.58003743	     18.28969574	      5.03315896	     -9.08616090	     34.22660414	     34.22660414	     19.49596473	    -11.94238489	     -0.03856257	     32.77967275	    -14.68157611	      5.12228975	     60.14647386	     60.14647386	     15.83069929	    -19.38355842	     18.92352024	    -12.72294691	      3.77344204	      2.07556685	     28.81290494	    -21.25800880	    -15.03593117	     51.75746043	     46.04773918	      0.00000000	      0.00000000	     -4.64515597	     -9.55785883	      3.84598834	     20.49260809	     46.60514820	      0.00000000	      0.00000000
     26.90228571	     -2.30458171	     -4.37159495	      3.77398152	      1.06986444	      0.90467410	      0.57889022	     18.28888795	      4.96903990	     -9.31516099	     34.57531253	     34.57531253	     19.70721403	    -13.53131086	      0.36001613	     33.77079406	    -14.05641649	      5.44709734	     57.23943817	     57.23943817	     15.71919822	    -19.34374880	     18.76432904	    -12.79383367	      3.80420002	      1.94090045	     31.13073778	    -20.80176234	    -15.22989788	     52.67222719	     46.02945059	      0.00000000	      0.00000000	     -6.52406663	     -9.84999011	      3.72913679	     20.22844445	     46.57431036	      0.00000000	      0.00000000
     26.92471429	     -2.43024755	     -4.34767541	      5.09103335	      1.06848148	      0.90466413	      0.57711087	     18.08349125	      4.75432769	     -9.99429116	     34.34355016	     34.34355016	     19.81046385	    -14.26081734	      0.65276310	     34.51743173	    -13.18937915	      5.86204883	     53.72586126	     53.72586126	     15.28528816	    -19.23767868	     18.52317272	    -12.70771902	      3.83477988	      2.20765219	     33.18064042	    -20.95857187	    -15.38270929	     53.46727582	     46.01506395	      0.00000000	      0.00000000	     -7.88715640	    -10.08123093	      3.62830803	     20.30141324	     46.55127124	      0.00000000	      0.00000000
     26.94714286	     -2.68428958	     -4.28776216	      6.36518402	      1.06700869	      0.90542796	      0.57497629	     17.79828274	      4.47540553	    -10.69985846	     33.72868858	     33.72868858	     19.88710767	    -14.71309551	      1.23172246	     34.88711022	    -12.27508170	      6.05264089	     49.45359681	     49.45359681	     12.99507172	    -19.09225586	     14.18464074	    -12.57438542	      3.87554562	      1.65013041	     35.94528456	    -20.36544781	    -15.23020149	     54.48958787	     45.96263520	      0.00000000	      0.00000000	    -10.48519878	    -10.44527394	      3.31793702	     23.12739332	     46.45796745	      0.00000000	      0.00000000
     26.96957143	     -3.01434470	     -4.13223321	      7.55032461	      1.06546873	      0.90722735	      0.57239670	     17.31202052	      4.05528463	    -11.49450326	     32.63254403	     32.63254403	     19.67020818	    -14.82907996	      1.47207794	     35.03602610	    -11.04485575	      6.45759759	     45.09802911	     45.09802911	     11.77967927	    -18.67582184	     13.96417844	    -12.34261092	      3.77629774	      1.72464842	     38.07184268	    -20.38370003	    -15.02216789	     56.03149425	     45.90598300	      0.00000000	      0.00000000	    -11.40512298	    -10.48768186	      3.37540974	     23.18918155	     46.41533280	      0.00000000	      0.00000000
     26.99200000	     -3.48610187	     -4.07043109	      8.62545792	      1.06403296	      0.90933403	      0.56973836	     16.76142149	      3.72653015	    -12.38081132	     31.11709809	     31.11709809	     19.08268665	    -14.74920537	      0.87267076	     34.89118070	    -10.10385769	      6.50339584	     40.20579290	     40.20579290	      8.42316404	    -18.05301519	      8.70951560	    -11.99112326	      3.74090859	      1.77815996	     39.75105699	    -20.72430967	    -13.72473061	     59.41553408	     45.72775427	      0.00000000	      0.00000000	    -12.91727633	    -10.68497376	      3.69228916	     25.47105416	     46.25353651	      0.00000000	      0.00000000
     27.01442857	     -3.99609028	     -3.95887073	      9.53366602	      1.06274070	      0.91198053	      0.56693164	     16.09018688	      3.39764919	    -13.14791848	     29.36307558	     29.36307558	     18.67950593	    -14.38349907	      1.13976009	     34.69836889	     -9.12797108	      6.54374688	     35.82682588	     35.82682588	      7.18920131	    -16.29240327	      9.13881942	    -11.50206667	      3.57683716	      1.92404854	     41.97632220	    -20.63254112	    -13.45925950	     61.15225878	     45.66671722	      0.00000000	      0.00000000	    -13.43889652	    -10.53449029	      3.81666521	     25.57902103	     46.21624597	      0.00000000	      0.00000000
     27.03685714	     -4.48032177	     -3.98398572	     10.33053319	      1.06169378	      0.91452088	      0.56404505	     15.24520290	      3.21969325	    -14.07827151	     27.29383668	     27.29383668	     17.67496259	    -13.88079723	     -0.34057922	     34.25701288	     -8.48580196	      6.28049159	     31.42834553	     31.42834553	      4.50473125	    -14.43285161	      5.76741249	    -11.15796871	      3.59300472	      2.06273832	     43.49313107	    -21.03166114	    -11.81418070	     65.86227007	     45.45457790	      0.00000000	      0.00000000	    -14.51215428	    -10.63061882	      4.88325824	     27.75454601	     45.97468156	      0.00000000	      0.00000000
     27.05928571	     -5.01139301	     -4.00080784	     10.97234093	      1.06094520	      0.91688413	      0.56114397	     14.46096185	      3.06253981	    -14.88944538	     25.31774222	     25.31774222	     17.13576450	    -13.00792821	     -0.62878368	     33.93057368	     -7.95738128	      5.76456993	     27.84236881	     27.84236881	      3.44896873	    -11.63434160	      5.96989795	    -10.66037656	      3.50930735	      2.13539813	     45.43224310	    -20.94143756	    -10.70947689	     69.34956725	     45.31289157	      0.00000000	      0.00000000	    -15.10864324	    -10.47173718	      5.30630250	     28.76363586	     45.88996429	      0.00000000	      0.00000000
     27.08171429	     -5.46632033	     -4.08286017	     11.45506803	      1.06048354	      0.91893046	      0.55819876	     13.60032111	      3.02527580	    -15.66595256	     23.35252840	     23.35252840	     16.57643201	    -12.09449523	     -0.98742197	     33.55128475	     -7.60149272	      5.11444226	     24.87453367	     24.87453367	      2.48847542	     -9.04822249	      6.15620344	    -10.21703408	      3.48760858	      2.27966785	     47.28830152	    -20.85631389	     -9.48259273	     73.10903835	     45.16531593	      0.00000000	      0.00000000	    -15.55976703	    -10.28695636	      5.77084253	     29.78241269	     45.81018400	      0.00000000	      0.00000000
